<mxfile host="65bd71144e">
    <diagram name="PÃ¡gina-1" id="rID2-5VV5o-f8hiscO5H">
        <mxGraphModel dx="629" dy="521" grid="1" gridSize="10" guides="1" tooltips="1" connect="1" arrows="1" fold="1" page="1" pageScale="1" pageWidth="850" pageHeight="1100" math="0" shadow="0">
            <root>
                <mxCell id="0"/>
                <mxCell id="1" parent="0"/>
                <mxCell id="599Gvw--pm6GxKZhtgYz-15" value="Arquitecrura limpia / clean Frontend" style="swimlane;childLayout=stackLayout;resizeParent=1;resizeParentMax=0;startSize=20;html=1;" parent="1" vertex="1">
                    <mxGeometry x="50" y="30" width="840" height="610" as="geometry"/>
                </mxCell>
                <mxCell id="599Gvw--pm6GxKZhtgYz-18" value="UI - Interfaz de usuario" style="swimlane;startSize=20;html=1;" parent="599Gvw--pm6GxKZhtgYz-15" vertex="1">
                    <mxGeometry y="20" width="240" height="590" as="geometry"/>
                </mxCell>
                <mxCell id="599Gvw--pm6GxKZhtgYz-36" value="UI" style="html=1;dropTarget=0;whiteSpace=wrap;verticalAlign=top;align=left;spacingLeft=10;" parent="599Gvw--pm6GxKZhtgYz-18" vertex="1">
                    <mxGeometry x="29.99999999999997" y="50" width="180" height="210" as="geometry"/>
                </mxCell>
                <mxCell id="599Gvw--pm6GxKZhtgYz-37" value="" style="shape=module;jettyWidth=8;jettyHeight=4;" parent="599Gvw--pm6GxKZhtgYz-36" vertex="1">
                    <mxGeometry x="1" width="20" height="20" relative="1" as="geometry">
                        <mxPoint x="-27" y="7" as="offset"/>
                    </mxGeometry>
                </mxCell>
                <mxCell id="599Gvw--pm6GxKZhtgYz-38" value="View model" style="html=1;dropTarget=0;whiteSpace=wrap;" parent="599Gvw--pm6GxKZhtgYz-18" vertex="1">
                    <mxGeometry x="55" y="170" width="130" height="70" as="geometry"/>
                </mxCell>
                <mxCell id="599Gvw--pm6GxKZhtgYz-39" value="" style="shape=module;jettyWidth=8;jettyHeight=4;" parent="599Gvw--pm6GxKZhtgYz-38" vertex="1">
                    <mxGeometry x="1" width="20" height="20" relative="1" as="geometry">
                        <mxPoint x="-27" y="7" as="offset"/>
                    </mxGeometry>
                </mxCell>
                <mxCell id="599Gvw--pm6GxKZhtgYz-32" value="Common" style="html=1;dropTarget=0;whiteSpace=wrap;" parent="599Gvw--pm6GxKZhtgYz-18" vertex="1">
                    <mxGeometry x="55" y="90" width="130" height="70" as="geometry"/>
                </mxCell>
                <mxCell id="599Gvw--pm6GxKZhtgYz-33" value="" style="shape=module;jettyWidth=8;jettyHeight=4;" parent="599Gvw--pm6GxKZhtgYz-32" vertex="1">
                    <mxGeometry x="1" width="20" height="20" relative="1" as="geometry">
                        <mxPoint x="-27" y="7" as="offset"/>
                    </mxGeometry>
                </mxCell>
                <mxCell id="599Gvw--pm6GxKZhtgYz-17" value="Infraestructure" style="swimlane;startSize=20;html=1;" parent="599Gvw--pm6GxKZhtgYz-15" vertex="1">
                    <mxGeometry x="240" y="20" width="320" height="590" as="geometry"/>
                </mxCell>
                <mxCell id="599Gvw--pm6GxKZhtgYz-24" value="Driver Adapter" style="html=1;dropTarget=0;whiteSpace=wrap;verticalAlign=top;align=left;spacingLeft=10;" parent="599Gvw--pm6GxKZhtgYz-17" vertex="1">
                    <mxGeometry x="25" y="50" width="180" height="210" as="geometry"/>
                </mxCell>
                <mxCell id="599Gvw--pm6GxKZhtgYz-25" value="" style="shape=module;jettyWidth=8;jettyHeight=4;" parent="599Gvw--pm6GxKZhtgYz-24" vertex="1">
                    <mxGeometry x="1" width="20" height="20" relative="1" as="geometry">
                        <mxPoint x="-27" y="7" as="offset"/>
                    </mxGeometry>
                </mxCell>
                <mxCell id="599Gvw--pm6GxKZhtgYz-26" value="Api serice" style="html=1;dropTarget=0;whiteSpace=wrap;" parent="599Gvw--pm6GxKZhtgYz-17" vertex="1">
                    <mxGeometry x="50" y="90" width="130" height="70" as="geometry"/>
                </mxCell>
                <mxCell id="599Gvw--pm6GxKZhtgYz-27" value="" style="shape=module;jettyWidth=8;jettyHeight=4;" parent="599Gvw--pm6GxKZhtgYz-26" vertex="1">
                    <mxGeometry x="1" width="20" height="20" relative="1" as="geometry">
                        <mxPoint x="-27" y="7" as="offset"/>
                    </mxGeometry>
                </mxCell>
                <mxCell id="599Gvw--pm6GxKZhtgYz-30" value="Helpers" style="html=1;dropTarget=0;whiteSpace=wrap;verticalAlign=top;align=left;spacingLeft=10;" parent="599Gvw--pm6GxKZhtgYz-17" vertex="1">
                    <mxGeometry x="25" y="300" width="180" height="210" as="geometry"/>
                </mxCell>
                <mxCell id="599Gvw--pm6GxKZhtgYz-31" value="" style="shape=module;jettyWidth=8;jettyHeight=4;" parent="599Gvw--pm6GxKZhtgYz-30" vertex="1">
                    <mxGeometry x="1" width="20" height="20" relative="1" as="geometry">
                        <mxPoint x="-27" y="7" as="offset"/>
                    </mxGeometry>
                </mxCell>
                <mxCell id="599Gvw--pm6GxKZhtgYz-34" value="Mapper" style="html=1;dropTarget=0;whiteSpace=wrap;" parent="599Gvw--pm6GxKZhtgYz-17" vertex="1">
                    <mxGeometry x="50" y="420" width="130" height="70" as="geometry"/>
                </mxCell>
                <mxCell id="599Gvw--pm6GxKZhtgYz-35" value="" style="shape=module;jettyWidth=8;jettyHeight=4;" parent="599Gvw--pm6GxKZhtgYz-34" vertex="1">
                    <mxGeometry x="1" width="20" height="20" relative="1" as="geometry">
                        <mxPoint x="-27" y="7" as="offset"/>
                    </mxGeometry>
                </mxCell>
                <mxCell id="599Gvw--pm6GxKZhtgYz-40" value="Common" style="html=1;dropTarget=0;whiteSpace=wrap;" parent="599Gvw--pm6GxKZhtgYz-17" vertex="1">
                    <mxGeometry x="50" y="340" width="130" height="70" as="geometry"/>
                </mxCell>
                <mxCell id="599Gvw--pm6GxKZhtgYz-41" value="" style="shape=module;jettyWidth=8;jettyHeight=4;" parent="599Gvw--pm6GxKZhtgYz-40" vertex="1">
                    <mxGeometry x="1" width="20" height="20" relative="1" as="geometry">
                        <mxPoint x="-27" y="7" as="offset"/>
                    </mxGeometry>
                </mxCell>
                <mxCell id="599Gvw--pm6GxKZhtgYz-16" value="Dominio" style="swimlane;startSize=20;html=1;" parent="599Gvw--pm6GxKZhtgYz-15" vertex="1">
                    <mxGeometry x="560" y="20" width="280" height="590" as="geometry"/>
                </mxCell>
                <mxCell id="599Gvw--pm6GxKZhtgYz-5" value="Models" style="html=1;dropTarget=0;whiteSpace=wrap;horizontal=1;verticalAlign=top;align=left;spacingLeft=10;" parent="599Gvw--pm6GxKZhtgYz-16" vertex="1">
                    <mxGeometry x="30" y="50" width="180" height="210" as="geometry"/>
                </mxCell>
                <mxCell id="599Gvw--pm6GxKZhtgYz-6" value="" style="shape=module;jettyWidth=8;jettyHeight=4;" parent="599Gvw--pm6GxKZhtgYz-5" vertex="1">
                    <mxGeometry x="1" width="20" height="20" relative="1" as="geometry">
                        <mxPoint x="-27" y="7" as="offset"/>
                    </mxGeometry>
                </mxCell>
                <mxCell id="599Gvw--pm6GxKZhtgYz-7" value="Use case" style="html=1;dropTarget=0;whiteSpace=wrap;" parent="599Gvw--pm6GxKZhtgYz-16" vertex="1">
                    <mxGeometry x="55" y="340" width="130" height="70" as="geometry"/>
                </mxCell>
                <mxCell id="599Gvw--pm6GxKZhtgYz-8" value="" style="shape=module;jettyWidth=8;jettyHeight=4;" parent="599Gvw--pm6GxKZhtgYz-7" vertex="1">
                    <mxGeometry x="1" width="20" height="20" relative="1" as="geometry">
                        <mxPoint x="-27" y="7" as="offset"/>
                    </mxGeometry>
                </mxCell>
                <mxCell id="599Gvw--pm6GxKZhtgYz-19" value="Gateway" style="html=1;dropTarget=0;whiteSpace=wrap;" parent="599Gvw--pm6GxKZhtgYz-16" vertex="1">
                    <mxGeometry x="55" y="90" width="130" height="70" as="geometry"/>
                </mxCell>
                <mxCell id="599Gvw--pm6GxKZhtgYz-20" value="" style="shape=module;jettyWidth=8;jettyHeight=4;" parent="599Gvw--pm6GxKZhtgYz-19" vertex="1">
                    <mxGeometry x="1" width="20" height="20" relative="1" as="geometry">
                        <mxPoint x="-27" y="7" as="offset"/>
                    </mxGeometry>
                </mxCell>
                <mxCell id="599Gvw--pm6GxKZhtgYz-21" value="Modelo" style="html=1;dropTarget=0;whiteSpace=wrap;" parent="599Gvw--pm6GxKZhtgYz-16" vertex="1">
                    <mxGeometry x="55" y="170" width="130" height="70" as="geometry"/>
                </mxCell>
                <mxCell id="599Gvw--pm6GxKZhtgYz-22" value="" style="shape=module;jettyWidth=8;jettyHeight=4;" parent="599Gvw--pm6GxKZhtgYz-21" vertex="1">
                    <mxGeometry x="1" width="20" height="20" relative="1" as="geometry">
                        <mxPoint x="-27" y="7" as="offset"/>
                    </mxGeometry>
                </mxCell>
                <mxCell id="599Gvw--pm6GxKZhtgYz-23" value="&lt;b&gt;Tutoriales:&lt;/b&gt;&lt;br&gt;&lt;hr&gt;&lt;br&gt;&lt;a href=&quot;https://www.youtube.com/watch?v=g5z_8ecIic0&lt;br/&gt;&quot;&gt;https://www.youtube.com/watch?v=g5z_8ecIic0&lt;/a&gt;&lt;br&gt;&lt;br&gt;&lt;a href=&quot;https://www.youtube.com/watch?v=SgKj51NLDDk&quot;&gt;https://www.youtube.com/watch?v=SgKj51NLDDk&lt;/a&gt;" style="text;html=1;align=left;verticalAlign=middle;resizable=0;points=[];autosize=1;strokeColor=none;fillColor=none;" parent="1" vertex="1">
                    <mxGeometry x="40" y="650" width="290" height="100" as="geometry"/>
                </mxCell>
                <mxCell id="599Gvw--pm6GxKZhtgYz-28" value="" style="shape=image;verticalLabelPosition=bottom;labelBackgroundColor=default;verticalAlign=top;aspect=fixed;imageAspect=0;image=https://xurxodev.com/content/images/2020/03/bloc-clean-architecture.png;" parent="1" vertex="1">
                    <mxGeometry x="40" y="760" width="672" height="320" as="geometry"/>
                </mxCell>
                <mxCell id="599Gvw--pm6GxKZhtgYz-29" value="" style="shape=image;verticalLabelPosition=bottom;labelBackgroundColor=default;verticalAlign=top;aspect=fixed;imageAspect=0;image=https://xurxodev.com/content/images/2016/07/CleanArchitecture-8b00a9d7e2543fa9ca76b81b05066629.jpg;" parent="1" vertex="1">
                    <mxGeometry x="30" y="1090" width="680.78" height="500" as="geometry"/>
                </mxCell>
            </root>
        </mxGraphModel>
    </diagram>
</mxfile>